<?xml version="1.0" encoding="UTF-8" standalone="no"?>
<svg
   xmlns:dc="http://purl.org/dc/elements/1.1/"
   xmlns:cc="http://creativecommons.org/ns#"
   xmlns:rdf="http://www.w3.org/1999/02/22-rdf-syntax-ns#"
   xmlns:svg="http://www.w3.org/2000/svg"
   xmlns="http://www.w3.org/2000/svg"
   id="svg35"
   version="1.1"
   viewBox="0 0 113.7443 22"
   height="22"
   width="113.7443">
  <metadata
     id="metadata39">
    <rdf:RDF>
      <cc:Work
         rdf:about="">
        <dc:format>image/svg+xml</dc:format>
        <dc:type
           rdf:resource="http://purl.org/dc/dcmitype/StillImage" />
        <dc:title></dc:title>
      </cc:Work>
    </rdf:RDF>
  </metadata>
  <defs
     id="defs17">
    <linearGradient
       gradientUnits="userSpaceOnUse"
       gradientTransform="scale(2.5555557,0.39130432)"
       id="linearGradient-1"
       y2="49.536009"
       x2="0.86040187"
       y1="49.536009"
       x1="44.508636">
      <stop
         id="stop2"
         offset="0%"
         stop-color="#266DA6" />
      <stop
         id="stop4"
         offset="100%"
         stop-color="#244971" />
    </linearGradient>
    <linearGradient
       gradientUnits="userSpaceOnUse"
       gradientTransform="scale(0.67419987,1.4832397)"
       id="linearGradient-2"
       y2="23.710257"
       x2="41.141985"
       y1="0.51239143"
       x1="38.454178">
      <stop
         id="stop7"
         offset="0%"
         stop-color="#FCD407" />
      <stop
         id="stop9"
         offset="100%"
         stop-color="#F68D11" />
    </linearGradient>
    <linearGradient
       gradientUnits="userSpaceOnUse"
       gradientTransform="scale(1.172604,0.85280285)"
       id="linearGradient-3"
       y2="22.171486"
       x2="15.717554"
       y1="11.121941"
       x1="15.113317">
      <stop
         id="stop12"
         offset="0%"
         stop-color="#FCD407" />
      <stop
         id="stop14"
         offset="100%"
         stop-color="#F68D11" />
    </linearGradient>
  </defs>
  <g
     transform="translate(-65.778066,-30)"
     style="fill:none;fill-rule:evenodd;stroke:none;stroke-width:1"
     id="Final-design">
    <g
       transform="translate(-781,-346)"
       id="States">
      <g
         transform="translate(781,346)"
         id="Group-6">
        <g
           transform="translate(65.778065,29.240001)"
           id="Group">
          <polygon
             style="fill:url(#linearGradient-1)"
             points="107.64131,22.196422 2.1296551e-013,22.196422 3.2350173,7.2501579 113.7443,4.7800001 "
             transform="rotate(180,56.872151,13.488211)"
             id="Rectangle" />
          <path
             style="fill:#000000;fill-opacity:0.47171403"
             id="path26"
             d="M 32.221935,2.5160769 V 19.098869 l -5,3.66113 0.714476,-21.99999969 h 2.845704 z m -16.774101,7.2439224 2.58849,4.3666667 -0.09065,-1.822222 V 9.7599993 h 2.276259 v 7.9999997 h -2.225899 l -2.588489,-4.355555 0.09065,1.822222 v 2.533333 h -2.27626 V 9.7599993 Z m 5.774101,4.0361447 c 0,-1.313253 0.603093,-2.036145 1.492268,-2.036145 0.935567,0 1.507732,0.783133 1.507732,1.963856 0,1.385542 -0.657216,2.036144 -1.5,2.036144 -0.842784,0 -1.5,-0.66265 -1.5,-1.963855 z m 3,3.951355 h -3 v -0.975 h 3 z" />
          <polygon
             style="fill:url(#linearGradient-2)"
             points="31.221935,18.618176 26.221935,22.759999 26.221935,7.8206061 21.221935,7.8206061 27.41055,0.75999931 31.221935,0.75999931 "
             id="Line-3" />
          <path
             style="fill:url(#linearGradient-3)"
             id="№"
             d="m 14.447834,8.7599993 2.58849,4.3666667 -0.09065,-1.822222 V 8.7599993 h 2.276259 v 7.9999997 h -2.225899 l -2.588489,-4.355555 0.09065,1.822222 v 2.533333 h -2.27626 V 8.7599993 Z m 7.326957,2.9999997 c -0.692512,0 -0.538189,0.524391 -0.538189,0.963415 0,0.719512 0.01128,1.036585 0.523135,1.036585 0.541966,0 0.457171,-0.317073 0.457171,-1.036585 0,-0.560976 0.08479,-0.963415 -0.442117,-0.963415 z m -1.552856,1.036145 c 0,-1.313253 0.603093,-2.036145 1.492268,-2.036145 0.935567,0 1.507732,0.783133 1.507732,1.963856 0,1.385542 -0.657216,2.036144 -1.5,2.036144 -0.842784,0 -1.5,-0.66265 -1.5,-1.963855 z m 3,3.951355 h -3 v -0.975 h 3 z" />
          <path
             style="fill:#ffffff;fill-rule:nonzero"
             id="ВАВТОЛИЗИНГЕ"
             d="m 41.788535,11.141799 c 0,0.149068 -0.01863,0.298133 -0.0559,0.4472 -0.03727,0.149068 -0.0989,0.285233 -0.1849,0.4085 -0.086,0.123268 -0.197799,0.2322 -0.3354,0.3268 -0.137601,0.0946 -0.303866,0.164833 -0.4988,0.2107 v 0.0516 c 0.172001,0.02867 0.335399,0.0774 0.4902,0.1462 0.154801,0.0688 0.289533,0.1634 0.4042,0.2838 0.114667,0.120401 0.204966,0.266599 0.2709,0.4386 0.06593,0.172001 0.0989,0.375533 0.0989,0.6106 0,0.309602 -0.06593,0.577633 -0.1978,0.8041 -0.131867,0.226468 -0.308166,0.411366 -0.5289,0.5547 -0.220734,0.143334 -0.471565,0.2494 -0.7525,0.3182 -0.280935,0.0688 -0.570465,0.1032 -0.8686,0.1032 h -0.3741 c -0.151934,0 -0.315333,-0.0043 -0.4902,-0.0129 -0.174868,-0.0086 -0.352599,-0.0215 -0.5332,-0.0387 -0.180601,-0.0172 -0.345433,-0.043 -0.4945,-0.0774 V 9.7829993 c 0.108934,-0.0172 0.233633,-0.0344 0.3741,-0.0516 0.140467,-0.0172 0.290966,-0.031533 0.4515,-0.043 0.160534,-0.011467 0.325366,-0.020067 0.4945,-0.0258 0.169134,-0.00573 0.336832,-0.0086 0.5031,-0.0086 0.280935,0 0.554699,0.0215 0.8213,0.0645 0.266601,0.043 0.504532,0.1189661 0.7138,0.2279 0.209268,0.1089337 0.376966,0.2608657 0.5031,0.4557997 0.126134,0.194935 0.1892,0.441465 0.1892,0.7396 z m -2.15,3.7324 c 0.143334,0 0.282366,-0.0172 0.4171,-0.0516 0.134734,-0.0344 0.253699,-0.08743 0.3569,-0.1591 0.1032,-0.07167 0.186333,-0.161966 0.2494,-0.2709 0.06307,-0.108934 0.0946,-0.237932 0.0946,-0.387 0,-0.189201 -0.03727,-0.338266 -0.1118,-0.4472 -0.07453,-0.108934 -0.171999,-0.193499 -0.2924,-0.2537 -0.120401,-0.0602 -0.255133,-0.0989 -0.4042,-0.1161 -0.149067,-0.0172 -0.298133,-0.0258 -0.4472,-0.0258 h -0.6278 v 1.6598 c 0.02867,0.01147 0.07453,0.02007 0.1376,0.0258 0.06307,0.0057 0.130433,0.01003 0.2021,0.0129 0.07167,0.0029 0.1462,0.0057 0.2236,0.0086 0.0774,0.0029 0.144766,0.0043 0.2021,0.0043 z m -0.387,-2.6058 c 0.08027,0 0.173433,-0.0029 0.2795,-0.0086 0.106067,-0.0057 0.1935,-0.01433 0.2623,-0.0258 0.217868,-0.0688 0.405633,-0.171999 0.5633,-0.3096 0.157667,-0.1376 0.2365,-0.318199 0.2365,-0.5418 0,-0.149067 -0.02867,-0.272332 -0.086,-0.3698 -0.05733,-0.09747 -0.1333,-0.174866 -0.2279,-0.2322 -0.0946,-0.05733 -0.202099,-0.09747 -0.3225,-0.1204 -0.120401,-0.02293 -0.246533,-0.0344 -0.3784,-0.0344 -0.149067,0 -0.286666,0.0029 -0.4128,0.0086 -0.126134,0.0057 -0.2236,0.01433 -0.2924,0.0258 v 1.6082 z m 9.5278,2.1586 h -1.849 l -0.4558,1.333 h -1.1782 l 2.1672,-6.0629997 h 0.8686 l 2.1672,6.0629997 h -1.2384 z m -1.548,-0.946 h 1.29 l -0.4472,-1.3416 -0.1806,-0.946 h -0.043 l -0.1806,0.9546 z m 8.4146,-2.3392 c 0,0.149068 -0.01863,0.298133 -0.0559,0.4472 -0.03727,0.149068 -0.0989,0.285233 -0.1849,0.4085 -0.086,0.123268 -0.197799,0.2322 -0.3354,0.3268 -0.137601,0.0946 -0.303866,0.164833 -0.4988,0.2107 v 0.0516 c 0.172001,0.02867 0.335399,0.0774 0.4902,0.1462 0.154801,0.0688 0.289533,0.1634 0.4042,0.2838 0.114667,0.120401 0.204966,0.266599 0.2709,0.4386 0.06593,0.172001 0.0989,0.375533 0.0989,0.6106 0,0.309602 -0.06593,0.577633 -0.1978,0.8041 -0.131867,0.226468 -0.308166,0.411366 -0.5289,0.5547 -0.220735,0.143334 -0.471565,0.2494 -0.7525,0.3182 -0.280935,0.0688 -0.570465,0.1032 -0.8686,0.1032 h -0.3741 c -0.151934,0 -0.315333,-0.0043 -0.4902,-0.0129 -0.174868,-0.0086 -0.352599,-0.0215 -0.5332,-0.0387 -0.180601,-0.0172 -0.345433,-0.043 -0.4945,-0.0774 V 9.7829993 c 0.108934,-0.0172 0.233633,-0.0344 0.3741,-0.0516 0.140467,-0.0172 0.290966,-0.031533 0.4515,-0.043 0.160534,-0.011467 0.325366,-0.020067 0.4945,-0.0258 0.169134,-0.00573 0.336832,-0.0086 0.5031,-0.0086 0.280935,0 0.554699,0.0215 0.8213,0.0645 0.266601,0.043 0.504532,0.1189661 0.7138,0.2279 0.209268,0.1089337 0.376966,0.2608657 0.5031,0.4557997 0.126134,0.194935 0.1892,0.441465 0.1892,0.7396 z m -2.15,3.7324 c 0.143334,0 0.282366,-0.0172 0.4171,-0.0516 0.134734,-0.0344 0.253699,-0.08743 0.3569,-0.1591 0.1032,-0.07167 0.186333,-0.161966 0.2494,-0.2709 0.06307,-0.108934 0.0946,-0.237932 0.0946,-0.387 0,-0.189201 -0.03727,-0.338266 -0.1118,-0.4472 -0.07453,-0.108934 -0.172,-0.193499 -0.2924,-0.2537 -0.120401,-0.0602 -0.255133,-0.0989 -0.4042,-0.1161 -0.149068,-0.0172 -0.298133,-0.0258 -0.4472,-0.0258 h -0.6278 v 1.6598 c 0.02867,0.01147 0.07453,0.02007 0.1376,0.0258 0.06307,0.0057 0.130433,0.01003 0.2021,0.0129 0.07167,0.0029 0.146199,0.0057 0.2236,0.0086 0.0774,0.0029 0.144766,0.0043 0.2021,0.0043 z m -0.387,-2.6058 c 0.08027,0 0.173433,-0.0029 0.2795,-0.0086 0.106067,-0.0057 0.1935,-0.01433 0.2623,-0.0258 0.217868,-0.0688 0.405632,-0.171999 0.5633,-0.3096 0.157667,-0.1376 0.2365,-0.318199 0.2365,-0.5418 0,-0.149067 -0.02867,-0.272332 -0.086,-0.3698 -0.05733,-0.09747 -0.1333,-0.174866 -0.2279,-0.2322 -0.0946,-0.05733 -0.202099,-0.09747 -0.3225,-0.1204 -0.120401,-0.02293 -0.246533,-0.0344 -0.3784,-0.0344 -0.149068,0 -0.286666,0.0029 -0.4128,0.0086 -0.126134,0.0057 -0.2236,0.01433 -0.2924,0.0258 v 1.6082 z m 8.3028,-1.4792 h -1.7544 v 4.9708 h -1.1782 v -4.9708 h -1.763 V 9.7399993 h 4.6956 z m 0.666,1.9608 c 0,-1.003338 0.220731,-1.775897 0.6622,-2.3177 0.441469,-0.5418024 1.072129,-0.8126997 1.892,-0.8126997 0.430002,0 0.805532,0.074533 1.1266,0.2236 0.321068,0.1490674 0.587665,0.3611987 0.7998,0.6363997 0.212134,0.275202 0.369799,0.604865 0.473,0.989 0.1032,0.384136 0.1548,0.811265 0.1548,1.2814 0,1.003339 -0.222164,1.775898 -0.6665,2.3177 -0.444336,0.541803 -1.073563,0.8127 -1.8877,0.8127 -0.435736,0 -0.814132,-0.07453 -1.1352,-0.2236 -0.321068,-0.149067 -0.586232,-0.361198 -0.7955,-0.6364 -0.209268,-0.275201 -0.3655,-0.604864 -0.4687,-0.989 -0.103201,-0.384135 -0.1548,-0.811264 -0.1548,-1.2814 z m 1.2384,0 c 0,0.303869 0.0258,0.583366 0.0774,0.8385 0.0516,0.255135 0.130433,0.474433 0.2365,0.6579 0.106067,0.183468 0.242232,0.3268 0.4085,0.43 0.166267,0.103201 0.364065,0.1548 0.5934,0.1548 0.418535,0 0.742465,-0.163398 0.9718,-0.4902 0.229334,-0.326801 0.344,-0.857129 0.344,-1.591 0,-0.292401 -0.02437,-0.564732 -0.0731,-0.817 -0.04873,-0.252268 -0.1247,-0.472999 -0.2279,-0.6622 -0.103201,-0.189201 -0.237933,-0.336832 -0.4042,-0.4429 -0.166268,-0.106067 -0.369799,-0.1591 -0.6106,-0.1591 -0.418536,0 -0.742466,0.167699 -0.9718,0.5031 -0.229335,0.335402 -0.344,0.86143 -0.344,1.5781 z m 8.2942,-1.9608 h -1.2814 c -0.02293,0.54467 -0.04873,1.040598 -0.0774,1.4878 -0.02867,0.447203 -0.06737,0.849965 -0.1161,1.2083 -0.04873,0.358335 -0.113233,0.675099 -0.1935,0.9503 -0.08027,0.275202 -0.183466,0.513133 -0.3096,0.7138 -0.08027,0.131868 -0.170566,0.2408 -0.2709,0.3268 -0.100334,0.086 -0.204966,0.1548 -0.3139,0.2064 -0.108934,0.0516 -0.216433,0.08743 -0.3225,0.1075 -0.106067,0.02007 -0.204966,0.0301 -0.2967,0.0301 -0.131867,0 -0.242233,-0.01003 -0.3311,-0.0301 -0.08887,-0.02007 -0.1763,-0.05017 -0.2623,-0.0903 l 0.129,-1.0148 c 0.0344,0.01147 0.0688,0.02007 0.1032,0.0258 0.0344,0.0057 0.0688,0.0086 0.1032,0.0086 0.09173,0 0.182033,-0.02293 0.2709,-0.0688 0.08887,-0.04587 0.164833,-0.123266 0.2279,-0.2322 0.086,-0.126134 0.160533,-0.311032 0.2236,-0.5547 0.06307,-0.243668 0.118966,-0.554698 0.1677,-0.9331 0.04873,-0.378402 0.08743,-0.829897 0.1161,-1.3545 0.02867,-0.524602 0.04873,-1.136629 0.0602,-1.8360997 h 3.5518 v 6.0199997 h -1.1782 z m 6.299,1.634 0.0688,-0.7826 h -0.043 l -0.4042,0.8084 -2.2446,3.311 h -0.8858 V 9.7399993 h 1.1782 v 3.2765997 l -0.086,0.8084 h 0.0516 l 0.4214,-0.8342 2.2446,-3.2507997 h 0.8772 v 6.0199997 h -1.1782 z m 3.3148,0.6708 v -0.9202 h 0.3956 c 0.07453,0 0.150499,-0.0014 0.2279,-0.0043 0.0774,-0.0029 0.153366,-0.0086 0.2279,-0.0172 0.07453,-0.0086 0.134733,-0.01863 0.1806,-0.0301 0.200667,-0.04587 0.372666,-0.127566 0.516,-0.2451 0.143334,-0.117534 0.215,-0.276632 0.215,-0.4773 0,-0.275201 -0.08743,-0.462966 -0.2623,-0.5633 -0.174868,-0.100333 -0.405632,-0.1505 -0.6923,-0.1505 -0.258001,0 -0.498799,0.0344 -0.7224,0.1032 -0.223601,0.0688 -0.392733,0.134733 -0.5074,0.1978 l -0.301,-0.9975997 c 0.06307,-0.0344 0.153366,-0.071666 0.2709,-0.1118 0.117534,-0.040133 0.252266,-0.078833 0.4042,-0.1161 0.151934,-0.037267 0.316766,-0.067367 0.4945,-0.0903 0.177734,-0.022933 0.358332,-0.0344 0.5418,-0.0344 0.252268,0 0.498799,0.022933 0.7396,0.0688 0.240801,0.045867 0.455799,0.1261328 0.645,0.2408 0.189201,0.1146677 0.341133,0.2680327 0.4558,0.4600997 0.114667,0.192068 0.172,0.437165 0.172,0.7353 0,0.298135 -0.07883,0.573332 -0.2365,0.8256 -0.157668,0.252268 -0.411365,0.435733 -0.7611,0.5504 v 0.043 c 0.372668,0.07453 0.663632,0.235066 0.8729,0.4816 0.209268,0.246535 0.3139,0.576198 0.3139,0.989 0,0.326802 -0.06593,0.606299 -0.1978,0.8385 -0.131868,0.232202 -0.305299,0.422833 -0.5203,0.5719 -0.215001,0.149068 -0.462965,0.259433 -0.7439,0.3311 -0.280935,0.07167 -0.567599,0.1075 -0.86,0.1075 -0.378402,0 -0.722399,-0.03153 -1.032,-0.0946 -0.309602,-0.06307 -0.547533,-0.137599 -0.7138,-0.2236 l 0.301,-1.0234 c 0.131867,0.06307 0.321065,0.127567 0.5676,0.1935 0.246534,0.06593 0.538932,0.0989 0.8772,0.0989 0.126134,0 0.253699,-0.01577 0.3827,-0.0473 0.129,-0.03153 0.245099,-0.08313 0.3483,-0.1548 0.1032,-0.07167 0.186333,-0.164832 0.2494,-0.2795 0.06307,-0.114667 0.0946,-0.252266 0.0946,-0.4128 0,-0.269468 -0.100333,-0.472999 -0.301,-0.6106 -0.200668,-0.1376 -0.558998,-0.212133 -1.075,-0.2236 -0.0688,-0.0057 -0.1204,-0.0086 -0.1548,-0.0086 z m 8.0964,-0.6708 0.0688,-0.7826 h -0.043 l -0.4042,0.8084 -2.2446,3.311 h -0.8858 V 9.7399993 h 1.1782 v 3.2765997 l -0.086,0.8084 h 0.0516 l 0.4214,-0.8342 2.2446,-3.2507997 h 0.8772 v 6.0199997 h -1.1782 z m 6.1786,0.817 h -2.2016 v 2.5198 h -1.1782 V 9.7399993 h 1.1782 v 2.4509997 h 2.2016 V 9.7399993 h 1.1782 v 6.0199997 h -1.1782 z m 6.299005,-2.451 h -2.322005 v 4.9708 h -1.1782 V 9.7399993 h 3.500205 z m 1.01859,-1.0491997 h 3.569 v 1.0491997 h -2.3908 v 1.4018 h 2.1758 v 1.0492 h -2.1758 v 1.4706 h 2.43381 v 1.0492 h -3.61201 z" />
        </g>
      </g>
    </g>
  </g>
</svg>
